<?xml version="1.0" encoding="utf-8"?>
<!-- Generator: Adobe Illustrator 27.8.0, SVG Export Plug-In . SVG Version: 6.00 Build 0)  -->
<svg version="1.1" id="Layer_1" xmlns="http://www.w3.org/2000/svg" xmlns:xlink="http://www.w3.org/1999/xlink" x="0px" y="0px"
	 viewBox="0 0 213.6 49.2" style="enable-background:new 0 0 213.6 49.2;" xml:space="preserve">
<style type="text/css">
	.st0{fill:#7499A7;}
	.st1{fill:#1C2126;}
</style>
<g>
	<g>
		<g>
			<g>
				<path class="st0" d="M115.4,20.2l-3.5,13.7h-5.1l-2-8.7l-2,8.7h-5.2l-3.5-13.7h2.5c1.1,0,2,0.8,2.3,1.8l1.5,7.5l1.9-9.3h3
					c1.1,0,2,0.8,2.2,1.8l1.6,7.5l1.5-7.5c0.2-1.1,1.2-1.9,2.3-1.9H115.4z"/>
				<path class="st0" d="M115.4,27.1c0-4.1,3.1-7.2,7.5-7.2c4.4,0,7.5,3.1,7.5,7.2c0,4.1-3.1,7.2-7.5,7.2
					C118.5,34.3,115.4,31.2,115.4,27.1z M126.1,27c0-2-1.2-3.3-3.1-3.3c-1.9,0-3.2,1.4-3.2,3.3c0,1.9,1.3,3.3,3.2,3.3
					C124.8,30.4,126.1,29,126.1,27z"/>
				<path class="st0" d="M139.8,19.8v4.1c-2.3,0-3.5,0.9-3.5,2.7v7.4h-4.4V20.2h3.6l0.5,1.2C136.9,20.4,138.3,19.8,139.8,19.8z"/>
				<path class="st0" d="M155.4,14.9v19.1h-3.6l-0.5-1.2c-1,1-2.3,1.5-4,1.5c-4,0-6.9-3.1-6.9-7.2c0-4.1,2.8-7.2,6.8-7.2
					c1.5,0,2.7,0.4,3.7,1.3v-6.3H155.4z M151.2,27.1c0-2-1.3-3.4-3.2-3.4c-1.8,0-3.2,1.4-3.2,3.4c0,2,1.3,3.4,3.2,3.4
					C150,30.4,151.2,29,151.2,27.1z"/>
				<path class="st0" d="M156.6,30.6l3.6-1.4c0.4,1.1,1.3,1.8,2.7,1.8c1,0,1.5-0.4,1.5-1c0-2.2-7.2-1.1-7.2-5.8
					c0-2.7,2.2-4.3,5.7-4.3c2.8,0,4.8,1.1,5.4,3l-3.6,1.4c-0.3-0.9-1-1.3-1.9-1.3c-0.9,0-1.3,0.3-1.3,0.9c0,2,7.2,0.7,7.2,5.8
					c0,2.8-2.3,4.6-5.9,4.6C159.6,34.3,157.4,33,156.6,30.6z"/>
				<path class="st1" d="M24.5,19.9c-1.5,0-2.8,0.5-3.7,1.2v-3.9c0-1.3-1-2.3-2.3-2.3h-2.1V34h4.4v-8c0-1.3,1.1-2.2,2.4-2.2
					c1.3,0,2.3,0.9,2.3,2.3V34h4.4v-8.7C29.8,22.1,27.7,19.9,24.5,19.9z"/>
				<path class="st1" d="M42,28.5c-0.3,1-0.9,1.7-2.4,2c-1.6,0.4-3-0.2-3.8-1.5l9.7-2.3c0-0.4-0.1-0.9-0.3-1.5
					c-0.8-3.3-4.2-6.1-8.5-5.1c-3.9,0.9-6.2,4.8-5.3,8.7c0.9,4,4.4,6.3,8.9,5.3c3.3-0.8,4.7-2.5,5.4-4.2l-0.3-0.1L42,28.5z
					 M37.6,23.2c1.5-0.4,2.8,0.3,3.5,1.8l-5.9,1.4C35.1,24.6,36,23.5,37.6,23.2z"/>
				<path class="st1" d="M57.7,21.7c-1-1-2.3-1.5-4-1.5c-4,0-6.9,2.8-6.9,6.9c0,4.1,2.9,7.2,6.9,7.2c1.7,0,3-0.6,4-1.6l0.5,1.3h3.6
					V20.2h-3.6L57.7,21.7z M54.4,30.5c-1.9,0-3.2-1.4-3.2-3.4c0-2,1.3-3.4,3.2-3.4c1.9,0,3.2,1.4,3.2,3.4
					C57.5,29.1,56.3,30.5,54.4,30.5z"/>
				<rect x="63.4" y="14.9" class="st1" width="4.4" height="19.1"/>
				<path class="st1" d="M75.4,28.1v-4.2h3.3v-3.7h-3.1v-3.6l-6.8,6.3v1.1h2.3v4.7c0,3.2,1.8,5.3,5.3,5.3h2.3v-3.8h-1.4
					C76.1,30.2,75.4,29.5,75.4,28.1z"/>
				<path class="st1" d="M88.3,19.9c-1.5,0-2.8,0.5-3.7,1.2v-3.9c0-1.3-1-2.3-2.3-2.3h-2.1V34h4.4v-8c0-1.3,1.1-2.2,2.4-2.2
					c1.3,0,2.3,0.9,2.3,2.3V34h4.4v-8.7C93.6,22.1,91.5,19.9,88.3,19.9z"/>
			</g>
		</g>
	</g>
</g>
<path class="st0" d="M172.7,34.1L172.7,34.1c-1.3,0-2.4-1.1-2.4-2.4v0c0-1.3,1.1-2.4,2.4-2.4l0,0c1.3,0,2.4,1.1,2.4,2.4v0
	C175.1,33,174,34.1,172.7,34.1z"/>
<g>
	<path class="st1" d="M192.3,15.7c0-1.6,1.2-2.7,2.7-2.7c1.5,0,2.7,1.1,2.7,2.7c0,1.6-1.2,2.7-2.7,2.7
		C193.5,18.3,192.3,17.2,192.3,15.7z M192.8,20.2h4.4v13.8h-4.4V20.2z"/>
</g>
<path class="st1" d="M187.1,21.7c-1-1-2.3-1.5-4-1.5c-4,0-6.9,2.8-6.9,6.9c0,4.1,2.9,7.2,6.9,7.2c1.7,0,3-0.6,4-1.6l0.5,1.3h3.6
	V20.2h-3.6L187.1,21.7z M183.8,30.5c-1.9,0-3.2-1.4-3.2-3.4c0-2,1.3-3.4,3.2-3.4c1.9,0,3.2,1.4,3.2,3.4
	C186.9,29.1,185.7,30.5,183.8,30.5z"/>
</svg>
